<mxfile host="app.diagrams.net" agent="Mozilla/5.0 (Windows NT 10.0; Win64; x64) AppleWebKit/537.36 (KHTML, like Gecko) Chrome/127.0.0.0 Safari/537.36 Edg/127.0.0.0" version="24.7.7">
  <diagram name="Page-1" id="e6wHuar8cyAkNmRzji5R">
    <mxGraphModel dx="1426" dy="757" grid="1" gridSize="10" guides="1" tooltips="1" connect="1" arrows="1" fold="1" page="1" pageScale="1" pageWidth="850" pageHeight="1100" math="0" shadow="0">
      <root>
        <mxCell id="0" />
        <mxCell id="1" parent="0" />
        <mxCell id="aHOBTLZ51QZTwN6Q_64S-4" style="edgeStyle=orthogonalEdgeStyle;rounded=0;orthogonalLoop=1;jettySize=auto;html=1;entryX=0.5;entryY=0;entryDx=0;entryDy=0;" edge="1" parent="1" source="aHOBTLZ51QZTwN6Q_64S-1" target="aHOBTLZ51QZTwN6Q_64S-2">
          <mxGeometry relative="1" as="geometry" />
        </mxCell>
        <mxCell id="aHOBTLZ51QZTwN6Q_64S-1" value="Start" style="ellipse;whiteSpace=wrap;html=1;" vertex="1" parent="1">
          <mxGeometry x="380" width="90" height="40" as="geometry" />
        </mxCell>
        <mxCell id="aHOBTLZ51QZTwN6Q_64S-5" style="edgeStyle=orthogonalEdgeStyle;rounded=0;orthogonalLoop=1;jettySize=auto;html=1;entryX=0.5;entryY=0;entryDx=0;entryDy=0;" edge="1" parent="1" source="aHOBTLZ51QZTwN6Q_64S-2" target="aHOBTLZ51QZTwN6Q_64S-3">
          <mxGeometry relative="1" as="geometry" />
        </mxCell>
        <mxCell id="aHOBTLZ51QZTwN6Q_64S-2" value="sum = 0" style="rounded=0;whiteSpace=wrap;html=1;" vertex="1" parent="1">
          <mxGeometry x="380" y="80" width="90" height="40" as="geometry" />
        </mxCell>
        <mxCell id="aHOBTLZ51QZTwN6Q_64S-7" style="edgeStyle=orthogonalEdgeStyle;rounded=0;orthogonalLoop=1;jettySize=auto;html=1;entryX=0.5;entryY=0;entryDx=0;entryDy=0;" edge="1" parent="1" source="aHOBTLZ51QZTwN6Q_64S-3" target="aHOBTLZ51QZTwN6Q_64S-6">
          <mxGeometry relative="1" as="geometry" />
        </mxCell>
        <mxCell id="aHOBTLZ51QZTwN6Q_64S-3" value="Input value" style="shape=parallelogram;perimeter=parallelogramPerimeter;whiteSpace=wrap;html=1;fixedSize=1;" vertex="1" parent="1">
          <mxGeometry x="370" y="160" width="110" height="40" as="geometry" />
        </mxCell>
        <mxCell id="aHOBTLZ51QZTwN6Q_64S-9" style="edgeStyle=orthogonalEdgeStyle;rounded=0;orthogonalLoop=1;jettySize=auto;html=1;entryX=0.5;entryY=0;entryDx=0;entryDy=0;" edge="1" parent="1" source="aHOBTLZ51QZTwN6Q_64S-6" target="aHOBTLZ51QZTwN6Q_64S-8">
          <mxGeometry relative="1" as="geometry" />
        </mxCell>
        <mxCell id="aHOBTLZ51QZTwN6Q_64S-16" style="edgeStyle=orthogonalEdgeStyle;rounded=0;orthogonalLoop=1;jettySize=auto;html=1;entryX=0;entryY=0.5;entryDx=0;entryDy=0;" edge="1" parent="1" source="aHOBTLZ51QZTwN6Q_64S-6" target="aHOBTLZ51QZTwN6Q_64S-13">
          <mxGeometry relative="1" as="geometry">
            <Array as="points">
              <mxPoint x="320" y="280" />
              <mxPoint x="320" y="460" />
            </Array>
          </mxGeometry>
        </mxCell>
        <mxCell id="aHOBTLZ51QZTwN6Q_64S-6" value="Is the value -1?" style="rhombus;whiteSpace=wrap;html=1;" vertex="1" parent="1">
          <mxGeometry x="360" y="240" width="130" height="80" as="geometry" />
        </mxCell>
        <mxCell id="aHOBTLZ51QZTwN6Q_64S-11" style="edgeStyle=orthogonalEdgeStyle;rounded=0;orthogonalLoop=1;jettySize=auto;html=1;entryX=0.5;entryY=0;entryDx=0;entryDy=0;" edge="1" parent="1" source="aHOBTLZ51QZTwN6Q_64S-8">
          <mxGeometry relative="1" as="geometry">
            <mxPoint x="425" y="440" as="targetPoint" />
          </mxGeometry>
        </mxCell>
        <mxCell id="aHOBTLZ51QZTwN6Q_64S-15" style="edgeStyle=orthogonalEdgeStyle;rounded=0;orthogonalLoop=1;jettySize=auto;html=1;entryX=1;entryY=0.5;entryDx=0;entryDy=0;" edge="1" parent="1" source="aHOBTLZ51QZTwN6Q_64S-8" target="aHOBTLZ51QZTwN6Q_64S-3">
          <mxGeometry relative="1" as="geometry">
            <Array as="points">
              <mxPoint x="425" y="420" />
              <mxPoint x="520" y="420" />
              <mxPoint x="520" y="180" />
            </Array>
          </mxGeometry>
        </mxCell>
        <mxCell id="aHOBTLZ51QZTwN6Q_64S-8" value="sum = sum + value" style="rounded=0;whiteSpace=wrap;html=1;" vertex="1" parent="1">
          <mxGeometry x="380" y="360" width="90" height="40" as="geometry" />
        </mxCell>
        <mxCell id="aHOBTLZ51QZTwN6Q_64S-12" style="edgeStyle=orthogonalEdgeStyle;rounded=0;orthogonalLoop=1;jettySize=auto;html=1;entryX=0.5;entryY=0;entryDx=0;entryDy=0;" edge="1" parent="1" source="aHOBTLZ51QZTwN6Q_64S-13" target="aHOBTLZ51QZTwN6Q_64S-14">
          <mxGeometry relative="1" as="geometry" />
        </mxCell>
        <mxCell id="aHOBTLZ51QZTwN6Q_64S-13" value="Output sum" style="shape=parallelogram;perimeter=parallelogramPerimeter;whiteSpace=wrap;html=1;fixedSize=1;" vertex="1" parent="1">
          <mxGeometry x="370" y="440" width="110" height="40" as="geometry" />
        </mxCell>
        <mxCell id="aHOBTLZ51QZTwN6Q_64S-14" value="Stop" style="ellipse;whiteSpace=wrap;html=1;" vertex="1" parent="1">
          <mxGeometry x="380" y="520" width="90" height="40" as="geometry" />
        </mxCell>
        <mxCell id="aHOBTLZ51QZTwN6Q_64S-18" value="No" style="text;html=1;align=center;verticalAlign=middle;resizable=0;points=[];autosize=1;strokeColor=none;fillColor=none;" vertex="1" parent="1">
          <mxGeometry x="425" y="320" width="40" height="30" as="geometry" />
        </mxCell>
        <mxCell id="aHOBTLZ51QZTwN6Q_64S-19" value="Yes" style="text;html=1;align=center;verticalAlign=middle;resizable=0;points=[];autosize=1;strokeColor=none;fillColor=none;" vertex="1" parent="1">
          <mxGeometry x="280" y="298" width="40" height="30" as="geometry" />
        </mxCell>
      </root>
    </mxGraphModel>
  </diagram>
</mxfile>
